<svg id="screenshot" viewBox="0 0.05223021582742149 1089 362.9477697841726" width="1089" height="362.9477697841726" version="1.1" xmlns="http://www.w3.org/2000/svg" xmlns:xlink="http://www.w3.org/1999/xlink" style="-webkit-print-color-adjust: exact;"><g id="shape-479a5b31-ec80-11ec-a7de-a50b7cfa0f8b" clip-path="url(#frame-clip-479a5b31-ec80-11ec-a7de-a50b7cfa0f8b-7e7b8080-f06c-11ec-befa-91b3c07ec436)"><defs><clipPath id="frame-clip-479a5b31-ec80-11ec-a7de-a50b7cfa0f8b-7e7b8080-f06c-11ec-befa-91b3c07ec436" class="frame-clip"><rect x="0" y="0" width="1089" height="363"/></clipPath></defs><rect x="0" y="0" width="1089" height="363" class="frame-background" style="fill: rgb(187, 181, 181); fill-opacity: 1;"/><g id="shape-8121d590-ec80-11ec-a7de-a50b7cfa0f8b"><g id="shape-48dc94a0-ec7f-11ec-a7de-a50b7cfa0f8b"><g id="shape-48de1b40-ec7f-11ec-a7de-a50b7cfa0f8b"><path class="cls-1" d="M338.65999999999985,250.63C292.41999999999985,250.63,268.10999999999984,218.2700000000001,268.10999999999984,182.94000000000017C268.10999999999984,147.12,293.89999999999986,116.24000000000012,339.54999999999984,116.24000000000012C384.90999999999985,116.24000000000012,409.54999999999984,149.34000000000003,409.54999999999984,184.18000000000018C409.5099999999999,219.2600000000001,384.01999999999987,250.63,338.65999999999985,250.63ZZM337.47999999999985,134.5200000000001C312.27999999999986,134.5200000000001,306.35999999999984,163.9200000000002,306.35999999999984,179.73000000000013C306.35999999999984,195.79000000000008,314.35999999999984,230.13,340.14999999999986,230.13C364.7599999999999,230.13,371.27999999999986,199.99000000000012,371.27999999999986,184.68000000000018C371.27999999999986,167.62,364.4499999999998,134.5200000000001,337.47999999999985,134.5200000000001ZZ" style="fill: rgb(234, 7, 7); fill-opacity: 1;"/></g><g id="shape-48df2cb0-ec7f-11ec-a7de-a50b7cfa0f8b"><path class="cls-1" d="M484.3499999999999,250.39C473.3499999999999,250.39,466.55999999999995,248.65999999999997,457.3499999999999,243.9699999999999L457.3499999999999,300.05000000000007C457.3499999999999,303.7599999999999,456.4599999999999,305.48000000000013,451.42999999999995,305.48000000000013L428.02999999999986,305.48000000000013C423.8699999999999,305.48000000000013,420.90999999999985,304.98000000000013,420.90999999999985,300.7900000000001L420.90999999999985,143.6600000000002C420.90999999999985,137.49000000000012,420.90999999999985,133.5300000000001,426.2499999999999,128.83000000000004C436.3299999999999,119.69000000000017,467.15999999999985,116.24000000000012,481.3899999999999,116.24000000000012C527.9299999999998,116.24000000000012,549.8699999999999,141.44000000000017,549.8699999999999,177.7500000000001C549.8899999999999,210.11,529.7099999999999,250.39,484.3499999999999,250.39ZZM475.4599999999999,134.32000000000005C463.0099999999999,134.32000000000005,457.3699999999999,139.5100000000001,457.3699999999999,149.39L457.3699999999999,224.98000000000013C463.89999999999986,227.98000000000013,470.3699999999999,230.65999999999997,478.1299999999999,230.65999999999997C505.69999999999993,230.65999999999997,512.2199999999999,200.0300000000001,512.2199999999999,182.49000000000012C512.2199999999999,163.18000000000018,504.79999999999984,134.32000000000005,475.4599999999999,134.32000000000005ZZ"/></g><g id="shape-48dfc8f0-ec7f-11ec-a7de-a50b7cfa0f8b"><path class="cls-1" d="M631.9799999999999,250.63C585.7399999999999,250.63,561.43,218.2700000000001,561.43,182.94000000000017C561.43,147.12,587.2199999999999,116.24000000000012,632.8699999999999,116.24000000000012C678.2299999999999,116.24000000000012,702.8699999999999,149.34000000000003,702.8699999999999,184.18000000000018C702.8299999999999,219.2600000000001,677.3299999999999,250.63,631.9799999999999,250.63ZZM630.7999999999998,134.5200000000001C605.5999999999998,134.5200000000001,599.6699999999998,163.9200000000002,599.6699999999998,179.73000000000013C599.6699999999998,195.79000000000008,607.6699999999998,230.13,633.4599999999998,230.13C658.0599999999998,230.13,664.5899999999998,199.99000000000012,664.5899999999998,184.68000000000018C664.5899999999999,167.62,657.7699999999999,134.5200000000001,630.7999999999998,134.5200000000001ZZ"/></g><g id="shape-48e08c40-ec7f-11ec-a7de-a50b7cfa0f8b"><path class="cls-1" d="M839.4299999999998,235.81000000000006C829.9499999999998,246.92999999999995,799.1199999999999,250.63,783.6999999999998,250.63C736.5699999999998,250.63,714.0399999999998,223.94999999999993,714.0399999999998,186.89C714.0399999999998,154.0300000000001,734.7899999999998,115.99000000000012,779.8499999999999,115.99000000000012C790.8499999999999,115.99000000000012,797.6299999999999,118.46000000000015,806.8499999999999,122.65999999999997L806.8499999999999,63.360000000000014C806.8499999999999,59.90999999999997,808.93,58.420000000000186,813.0799999999999,58.420000000000186L836.4999999999999,58.420000000000186C840.6499999999999,58.420000000000186,843.6199999999999,58.920000000000186,843.6199999999999,62.870000000000005L843.6199999999999,223.21000000000015C843.5899999999999,227.65999999999997,842.6999999999998,232.11,839.4299999999998,235.81000000000006ZZM806.8199999999998,138.97000000000014C801.1652020213083,135.01721027669112,794.4489794147191,132.86327899964283,787.5499999999998,132.79000000000008C758.7999999999998,132.79000000000008,751.0899999999998,163.4200000000002,751.0899999999998,181.95000000000016C751.0899999999998,201.22000000000014,758.7999999999998,230.62,788.4499999999998,230.62C801.1899999999998,230.62,806.8299999999998,224.69000000000017,806.8299999999998,214.81000000000006Z"/></g><g id="shape-48e0da60-ec7f-11ec-a7de-a50b7cfa0f8b"><path class="cls-1" d="M925.4899999999998,250.32000000000005C879.25,250.32000000000005,854.8899999999999,217.94999999999993,854.8899999999999,182.62C854.8899999999999,146.80000000000007,880.6799999999998,115.92000000000019,926.3299999999999,115.92000000000019C971.69,115.92000000000019,996.3299999999999,149.0300000000001,996.3299999999999,183.86C996.3400000000001,218.94000000000017,970.8899999999999,250.32000000000005,925.4899999999998,250.32000000000005ZZM924.2999999999997,134.22000000000014C899.0999999999999,134.22000000000014,893.1799999999998,163.62,893.1799999999998,179.43000000000018C893.1799999999998,195.49000000000012,901.1799999999998,229.83000000000004,926.98,229.83000000000004C951.5799999999999,229.83000000000004,958.0999999999999,199.69000000000017,958.0999999999999,184.37C958.0999999999999,167.32000000000005,951.2800000000002,134.21000000000015,924.2999999999997,134.22000000000014ZZ"/></g></g><g id="shape-62c03c51-ec7f-11ec-a7de-a50b7cfa0f8b"><g><path d="M1140 10370 l0 -4170 645 0 645 0 0 2055 0 2055 -65 909 c-36 501
-65 926 -65 946 0 35 1 36 36 33 l36 -3 149 -357 150 -358 1105 -1922 c609
-1058 1291 -2246 1518 -2640 l411 -717 538 -1 537 0 0 4170 0 4170 -645 0
-645 0 0 -2322 0 -2323 70 -799 c39 -439 70 -802 70 -808 0 -5 -16 -8 -36 -6
l-37 3 -181 485 c-100 267 -193 505 -207 530 -23 40 -705 1255 -2428 4325
l-510 910 -546 3 -545 2 0 -4170z" transform="translate(82, -18.34776978417233) scale(0.25, 0.25) translate(0.000000,1676.000000) scale(0.100000,-0.100000)" fill="#ea0707" stroke="none"/></g></g></g></g></svg>