<svg id="screenshot" viewBox="0 0.06000000000011596 1181 416.9399999999999" width="1181" height="416.9399999999999" version="1.1" xmlns="http://www.w3.org/2000/svg" xmlns:xlink="http://www.w3.org/1999/xlink" style="-webkit-print-color-adjust: exact;"><g id="shape-479a5b31-ec80-11ec-a7de-a50b7cfa0f8b" clip-path="url(#frame-clip-479a5b31-ec80-11ec-a7de-a50b7cfa0f8b-b6cbdcc0-ec82-11ec-9f6a-cf761763679d)"><defs><clipPath id="frame-clip-479a5b31-ec80-11ec-a7de-a50b7cfa0f8b-b6cbdcc0-ec82-11ec-9f6a-cf761763679d" class="frame-clip"><rect x="0" y="0" width="1181" height="417"/></clipPath></defs><rect x="0" y="0" width="1181" height="417" class="frame-background" style="fill: rgb(187, 181, 181); fill-opacity: 1;"/><g id="shape-8121d590-ec80-11ec-a7de-a50b7cfa0f8b"><g id="shape-48dc94a0-ec7f-11ec-a7de-a50b7cfa0f8b"><g id="shape-48de1b40-ec7f-11ec-a7de-a50b7cfa0f8b"><path class="cls-1" d="M430.65999999999985,277.0899999999999C384.41999999999985,277.0899999999999,360.10999999999984,244.73000000000002,360.10999999999984,209.4000000000001C360.10999999999984,173.57999999999993,385.89999999999986,142.70000000000005,431.54999999999984,142.70000000000005C476.90999999999985,142.70000000000005,501.54999999999984,175.79999999999995,501.54999999999984,210.6400000000001C501.5099999999999,245.72000000000003,476.01999999999987,277.0899999999999,430.65999999999985,277.0899999999999ZZM429.47999999999985,160.98000000000002C404.27999999999986,160.98000000000002,398.35999999999984,190.3800000000001,398.35999999999984,206.19000000000005C398.35999999999984,222.25,406.35999999999984,256.5899999999999,432.14999999999986,256.5899999999999C456.7599999999999,256.5899999999999,463.27999999999986,226.45000000000005,463.27999999999986,211.1400000000001C463.27999999999986,194.07999999999993,456.4499999999999,160.98000000000002,429.47999999999985,160.98000000000002ZZ"/></g><g id="shape-48df2cb0-ec7f-11ec-a7de-a50b7cfa0f8b"><path class="cls-1" d="M576.3499999999999,276.8499999999999C565.3499999999999,276.8499999999999,558.56,275.1199999999999,549.3499999999999,270.42999999999984L549.3499999999999,326.51C549.3499999999999,330.2199999999998,548.4599999999999,331.94000000000005,543.43,331.94000000000005L520.0299999999999,331.94000000000005C515.8699999999999,331.94000000000005,512.9099999999999,331.44000000000005,512.9099999999999,327.25L512.9099999999999,170.12000000000012C512.9099999999999,163.95000000000005,512.9099999999999,159.99,518.2499999999999,155.28999999999996C528.3299999999999,146.1500000000001,559.1599999999999,142.70000000000005,573.3899999999999,142.70000000000005C619.9299999999998,142.70000000000005,641.8699999999999,167.9000000000001,641.8699999999999,204.21000000000004C641.8899999999999,236.56999999999994,621.7099999999999,276.8499999999999,576.3499999999999,276.8499999999999ZZM567.4599999999999,160.77999999999997C555.0099999999999,160.77999999999997,549.3699999999999,165.97000000000003,549.3699999999999,175.8499999999999L549.3699999999999,251.44000000000005C555.8999999999999,254.44000000000005,562.3699999999999,257.1199999999999,570.1299999999999,257.1199999999999C597.6999999999999,257.1199999999999,604.2199999999999,226.49,604.2199999999999,208.95000000000005C604.2199999999999,189.6400000000001,596.7999999999998,160.77999999999997,567.4599999999999,160.77999999999997ZZ"/></g><g id="shape-48dfc8f0-ec7f-11ec-a7de-a50b7cfa0f8b"><path class="cls-1" d="M723.9799999999999,277.0899999999999C677.7399999999999,277.0899999999999,653.43,244.73000000000002,653.43,209.4000000000001C653.43,173.57999999999993,679.2199999999999,142.70000000000005,724.8699999999999,142.70000000000005C770.2299999999999,142.70000000000005,794.8699999999999,175.79999999999995,794.8699999999999,210.6400000000001C794.8299999999999,245.72000000000003,769.3299999999999,277.0899999999999,723.9799999999999,277.0899999999999ZZM722.7999999999998,160.98000000000002C697.5999999999998,160.98000000000002,691.6699999999998,190.3800000000001,691.6699999999998,206.19000000000005C691.6699999999998,222.25,699.6699999999998,256.5899999999999,725.4599999999998,256.5899999999999C750.0599999999998,256.5899999999999,756.5899999999998,226.45000000000005,756.5899999999998,211.1400000000001C756.5899999999999,194.07999999999993,749.7699999999999,160.98000000000002,722.7999999999998,160.98000000000002ZZ"/></g><g id="shape-48e08c40-ec7f-11ec-a7de-a50b7cfa0f8b"><path class="cls-1" d="M931.4299999999998,262.27C921.9499999999998,273.3899999999999,891.1199999999999,277.0899999999999,875.6999999999998,277.0899999999999C828.5699999999998,277.0899999999999,806.0399999999998,250.40999999999985,806.0399999999998,213.3499999999999C806.0399999999998,180.49,826.7899999999998,142.45000000000005,871.8499999999999,142.45000000000005C882.8499999999999,142.45000000000005,889.6299999999999,144.92000000000007,898.8499999999999,149.1199999999999L898.8499999999999,89.81999999999994C898.8499999999999,86.36999999999989,900.93,84.88000000000011,905.0799999999999,84.88000000000011L928.4999999999999,84.88000000000011C932.6499999999999,84.88000000000011,935.6199999999999,85.38000000000011,935.6199999999999,89.32999999999993L935.6199999999999,249.67000000000007C935.5899999999999,254.1199999999999,934.6999999999998,258.56999999999994,931.4299999999998,262.27ZZM898.8199999999998,165.43000000000006C893.1652020213083,161.47721027669104,886.4489794147191,159.32327899964275,879.5499999999998,159.25C850.7999999999998,159.25,843.0899999999998,189.8800000000001,843.0899999999998,208.41000000000008C843.0899999999998,227.68000000000006,850.7999999999998,257.0799999999999,880.4499999999998,257.0799999999999C893.1899999999998,257.0799999999999,898.8299999999998,251.1500000000001,898.8299999999998,241.26999999999998Z"/></g><g id="shape-48e0da60-ec7f-11ec-a7de-a50b7cfa0f8b"><path class="cls-1" d="M1017.4899999999999,276.78C971.2499999999999,276.78,946.8899999999999,244.40999999999985,946.8899999999999,209.07999999999993C946.8899999999999,173.26,972.6799999999998,142.3800000000001,1018.3299999999998,142.3800000000001C1063.69,142.3800000000001,1088.33,175.49,1088.33,210.31999999999994C1088.3400000000001,245.4000000000001,1062.8899999999999,276.78,1017.4899999999999,276.78ZZM1016.2999999999998,160.68000000000006C991.0999999999998,160.68000000000006,985.1799999999998,190.07999999999993,985.1799999999998,205.8900000000001C985.1799999999998,221.95000000000005,993.1799999999998,256.28999999999996,1018.9799999999999,256.28999999999996C1043.58,256.28999999999996,1050.1,226.1500000000001,1050.1,210.82999999999993C1050.1,193.77999999999997,1043.2800000000002,160.67000000000007,1016.2999999999998,160.68000000000006ZZ"/></g><g id="shape-48e10170-ec7f-11ec-a7de-a50b7cfa0f8b"><path class="cls-2" d="M115.27999999999986,83.99000000000001L116.75999999999988,83.99000000000001C122.25263350457686,83.99000000000001,127.52030304071451,86.17194016396775,131.4041814383733,90.05581856162667C135.28805983603206,93.93969695928536,137.4699999999999,99.207366495423,137.4699999999999,104.70000000000005L137.4699999999999,128.33999999999992C137.4699999999999,133.83263350457696,135.28805983603206,139.1003030407146,131.4041814383733,142.98418143837353C127.52030304071451,146.86805983603222,122.25263350457686,149.04999999999995,116.75999999999988,149.04999999999995L113.75999999999988,149.04999999999995C102.32608826900974,149.0444790376323,93.05999866707793,139.773913063912,93.05999999999989,128.33999999999992L93.05999999999989,104.69000000000005C93.05734699788059,99.19828625152604,95.23706234033443,93.93059085937784,99.11935296075762,90.0464247362413C103.00164358118082,86.16225861310454,108.26828561071306,83.9799993591771,113.76000000000431,83.98000000000002Z"/></g><g id="shape-48e12880-ec7f-11ec-a7de-a50b7cfa0f8b"><path class="cls-2" d="M169.11999999999986,83.99000000000001L170.59999999999985,83.99000000000001C176.09263350457684,83.99000000000001,181.36030304071448,86.17194016396775,185.2441814383733,90.05581856162667C189.12805983603207,93.93969695928536,191.3099999999999,99.207366495423,191.3099999999999,104.70000000000005L191.30999999999986,128.33999999999992C191.3099999999999,133.83263350457696,189.12805983603207,139.1003030407146,185.2441814383733,142.98418143837353C181.36030304071448,146.86805983603222,176.0926335045768,149.04999999999995,170.59999999999985,149.04999999999995L167.59999999999985,149.04999999999995C162.10563344602247,149.05000064051228,156.8364478776357,146.86668781815433,152.9522818934907,142.98064633136119C149.06811590934572,139.09460484456827,146.88734699828376,133.82436591346527,146.88999999999987,128.33000000000015L146.88999999999987,104.69000000000005C146.88999999999987,99.19736649542301,149.07194016396767,93.92969695928537,152.95581856162647,90.04581856162667C156.83969695928528,86.16194016396776,162.10736649542292,83.98000000000002,167.5999999999999,83.98000000000002Z"/></g><g id="shape-48e176a0-ec7f-11ec-a7de-a50b7cfa0f8b"><path class="cls-2" d="M223.29999999999987,83.99000000000001L224.77999999999986,83.99000000000001C236.21391173098996,83.99552096236789,245.4800013329218,93.26608693608796,245.47999999999985,104.70000000000005L245.47999999999985,128.33999999999992C245.48000134156212,139.77391304826187,236.21391174663586,149.04447902898437,224.78000001564993,149.04999999999245L221.77999999999986,149.04999999999995C216.28736649542287,149.04999999999995,211.01969695928523,146.86805983603222,207.13581856162642,142.98418143837353C203.25194016396762,139.1003030407146,201.06999999999982,133.83263350457696,201.06999999999982,128.34000000000015L201.06999999999985,104.69000000000005C201.06999999999982,99.19736649542301,203.25194016396762,93.92969695928537,207.13581856162642,90.04581856162667C211.01969695928523,86.16194016396776,216.28736649542287,83.98000000000002,221.77999999999986,83.98000000000002Z"/></g><g id="shape-48e19db0-ec7f-11ec-a7de-a50b7cfa0f8b"><path class="cls-2" d="M277.4899999999999,83.99000000000001L278.9699999999999,83.99000000000001C290.4078171689957,83.99000000000001,299.6799999999999,93.26218283100434,299.6799999999999,104.70000000000005L299.6799999999999,128.33999999999992C299.6799999999999,139.77781716899585,290.4078171689957,149.04999999999995,278.9699999999999,149.04999999999995L275.9699999999999,149.04999999999995C264.53218283100415,149.04999999999995,255.25999999999993,139.77781716899585,255.25999999999993,128.34000000000015L255.25999999999993,104.69000000000005C255.25999999999993,93.25218283100435,264.53218283100415,83.98000000000002,275.9699999999999,83.98000000000002Z"/></g><g id="shape-48e1ebd0-ec7f-11ec-a7de-a50b7cfa0f8b"><path class="cls-2" d="M331.2499999999999,83.99000000000001L332.7299999999999,83.99000000000001C338.22171438929115,83.98999935917823,343.488356418823,86.1722586131068,347.37064703924534,90.05642473624448C351.2529376596677,93.94059085938193,353.4326530021204,99.20828625153058,353.42999999999995,104.70000000000005L353.4299999999999,128.33999999999992C353.4300013415622,139.77391304826187,344.16391174663596,149.04447902898437,332.73000001565003,149.04999999999245L329.7299999999999,149.04999999999995C318.29218283100414,149.04999999999995,309.0199999999999,139.77781716899585,309.0199999999999,128.34000000000015L309.0199999999999,104.69000000000005C309.0199999999999,93.25218283100435,318.29218283100414,83.98000000000002,329.7299999999999,83.98000000000002Z"/></g></g><g id="shape-62c03c51-ec7f-11ec-a7de-a50b7cfa0f8b"><g><path d="M1140 10370 l0 -4170 645 0 645 0 0 2055 0 2055 -65 909 c-36 501
-65 926 -65 946 0 35 1 36 36 33 l36 -3 149 -357 150 -358 1105 -1922 c609
-1058 1291 -2246 1518 -2640 l411 -717 538 -1 537 0 0 4170 0 4170 -645 0
-645 0 0 -2322 0 -2323 70 -799 c39 -439 70 -802 70 -808 0 -5 -16 -8 -36 -6
l-37 3 -181 485 c-100 267 -195 510 -213 540 -17 30 -185 330 -373 665 -1311
2337 -2247 4004 -2392 4263 l-170 302 -544 0 -544 0 0 -4170z M10793 12329
c-247 -22 -517 -89 -751 -185 -624 -257 -1080 -742 -1356 -1440 -181 -459
-269 -1025 -253 -1624 15 -538 88 -945 243 -1348 194 -506 478 -890 872 -1180
727 -536 1870 -623 2718 -207 500 246 852 606 1114 1140 176 358 276 696 329
1115 73 573 41 1222 -84 1711 -211 825 -662 1427 -1310 1752 -285 142 -577
227 -905 262 -144 16 -463 18 -617 4z m532 -994 c115 -18 195 -44 321 -105
296 -143 510 -425 647 -855 95 -296 135 -586 144 -1035 13 -676 -74 -1187
-271 -1579 -58 -114 -82 -152 -163 -257 -170 -222 -403 -361 -683 -408 -367
-62 -699 10 -961 210 -295 225 -504 665 -583 1229 -69 490 -53 1136 39 1560
88 408 225 701 427 910 100 105 185 169 303 228 229 114 483 147 780 102z" transform="translate(145, 16.659999999999854) scale(0.25, 0.25) translate(0.000000,1676.000000) scale(0.100000,-0.100000)" fill="#ea0707" stroke="none"/></g></g><g id="shape-94e85340-ec82-11ec-a7de-a50b7cfa0f8b"><g id="shape-2b56f191-ec80-11ec-a7de-a50b7cfa0f8b"><rect rx="0" ry="0" x="417.9999998109026" y="204.69067895853732" transform="matrix(0.9396926191632183,-0.34202014579011875,0.3420201591971476,0.9396926727861502,-26.629595175921054,275.3574218641363)" width="699" height="17" style="fill: rgb(234, 7, 7); fill-opacity: 1;"/></g><g id="shape-594069e0-ec82-11ec-a7de-a50b7cfa0f8b"><rect rx="0" ry="0" x="418" y="183.69067895853732" transform="matrix(0.9396926204900167,0.3420201421447577,-0.3420201429284159,0.9396926167458306,112.01899726082036,-250.90994216227)" width="699" height="17" style="fill: rgb(234, 7, 7); fill-opacity: 1;"/></g></g></g></g></svg>