<svg id="screenshot" viewBox="2.842170943040401e-14 0.05482014388485368 1274 380.94517985611515" width="1274" height="380.94517985611515" version="1.1" xmlns="http://www.w3.org/2000/svg" xmlns:xlink="http://www.w3.org/1999/xlink" style="-webkit-print-color-adjust: exact;"><g id="shape-479a5b31-ec80-11ec-a7de-a50b7cfa0f8b" clip-path="url(#frame-clip-479a5b31-ec80-11ec-a7de-a50b7cfa0f8b-8dcde8f0-f073-11ec-ae38-a1afb508f120)"><defs><clipPath id="frame-clip-479a5b31-ec80-11ec-a7de-a50b7cfa0f8b-8dcde8f0-f073-11ec-ae38-a1afb508f120" class="frame-clip"><rect x="0" y="0" width="1274" height="381"/></clipPath></defs><rect x="0" y="0" width="1274" height="381" class="frame-background" style="fill: rgb(187, 181, 181); fill-opacity: 1;"/><g id="shape-df09e0e0-f071-11ec-a7de-a50b7cfa0f8b"><g id="shape-5c03db10-f071-11ec-a7de-a50b7cfa0f8b"><g id="shape-7f10bed0-f070-11ec-a7de-a50b7cfa0f8b"><path d="M69.78566893110182,228.56179856115125C56.763612096569446,228.56179856115125,46.14298835556224,217.72676115107936,46.14298835556224,204.48314352518003C46.14298835556224,203.93281510791383,46.14298835556224,203.28242697841745,46.250195190094615,202.62489172661878C46.35740202462699,200.65228597122325,45.79992648505865,198.85835827338144,47.34370490232483,196.935782374101C59.22936929081406,187.2871672661871,67.22699914692917,165.5241798561152,68.0274768447709,160.7141665467626L69.78566893110182,158.5200000000001L71.42950706059824,160.5998125899281C72.0870423123968,161.47890863309374,87.73924015412344,181.28358453237422,92.22048583757667,196.935782374101C92.77081425484288,198.68682733812977,93.2067887152745,200.6594330935253,93.31399554980688,202.62489172661878C93.42120238433925,203.28242697841745,93.42120238433925,203.9399622302161,93.42120238433925,204.48314352518003C93.42834950664142,217.72676115107936,82.80772576563423,228.56179856115125,69.78566893110182,228.56179856115125ZL69.78566893110182,228.56179856115125Z" style="fill: rgb(0, 0, 0); fill-opacity: 1; stroke-width: 1; stroke: rgb(0, 0, 0); stroke-opacity: 1;"/></g><g id="shape-189d5ea0-f071-11ec-a7de-a50b7cfa0f8b"><path d="M124.23571668069441,188.56179856115125C111.21365984616203,188.56179856115125,100.59303610515484,177.72676115107936,100.59303610515484,164.48314352518003C100.59303610515484,163.93281510791383,100.59303610515484,163.28242697841745,100.70024293968719,162.62489172661878C100.80744977421959,160.65228597122325,100.24997423465122,158.85835827338144,101.79375265191742,156.935782374101C113.67941704040665,147.2871672661871,121.67704689652176,125.52417985611521,122.47752459436349,120.71416654676261L124.23571668069441,118.5200000000001L125.87955481019081,120.59981258992809C126.53709006198939,121.47890863309374,142.18928790371604,141.28358453237422,146.67053358716925,156.935782374101C147.22086200443545,158.68682733812977,147.65683646486713,160.6594330935253,147.76404329939948,162.62489172661878C147.87125013393182,163.28242697841745,147.87125013393182,163.9399622302161,147.87125013393182,164.48314352518003C147.878397256234,177.72676115107936,137.2577735152268,188.56179856115125,124.23571668069441,188.56179856115125ZL124.23571668069441,188.56179856115125Z" style="fill: rgb(0, 0, 0); fill-opacity: 1; stroke-width: 1; stroke: rgb(0, 0, 0); stroke-opacity: 1;"/></g><g id="shape-21b28100-f071-11ec-a7de-a50b7cfa0f8b"><path d="M178.685764430287,190.56179856115125C165.6637075957546,190.56179856115125,155.0430838547474,179.72676115107936,155.0430838547474,166.48314352518003C155.0430838547474,165.93281510791383,155.0430838547474,165.28242697841745,155.15029068927976,164.62489172661878C155.25749752381222,162.65228597122325,154.70002198424385,160.85835827338144,156.24380040151,158.935782374101C168.12946478999925,149.2871672661871,176.12709464611436,127.52417985611521,176.92757234395611,122.71416654676261L178.685764430287,120.5200000000001L180.32960255978338,122.59981258992809C180.987137811582,123.47890863309374,196.6393356533086,143.28358453237422,201.12058133676186,158.935782374101C201.67090975402806,160.68682733812977,202.10688421445974,162.6594330935253,202.2140910489921,164.62489172661878C202.32129788352444,165.28242697841745,202.32129788352444,165.9399622302161,202.32129788352444,166.48314352518003C202.3284450058266,179.72676115107936,191.70782126481942,190.56179856115125,178.685764430287,190.56179856115125ZL178.685764430287,190.56179856115125Z" style="fill: rgb(0, 0, 0); fill-opacity: 1; stroke-width: 1; stroke: rgb(0, 0, 0); stroke-opacity: 1;"/></g><g id="shape-309e63a0-f071-11ec-a7de-a50b7cfa0f8b"><path d="M233.13581217987957,153.56179856115125C220.11375534534722,153.56179856115125,209.49313160434002,142.72676115107936,209.49313160434002,129.48314352518003C209.49313160434002,128.93281510791383,209.49313160434002,128.28242697841745,209.60033843887237,127.62489172661878C209.70754527340483,125.65228597122325,209.15006973383646,123.85835827338144,210.6938481511026,121.935782374101C222.5795125395918,112.28716726618711,230.57714239570697,90.52417985611521,231.37762009354873,85.71416654676261L233.13581217987957,83.5200000000001L234.779650309376,85.59981258992809C235.43718556117454,86.47890863309374,251.0893834029012,106.28358453237422,255.57062908635447,121.935782374101C256.1209575036207,123.68682733812977,256.55693196405235,125.65943309352531,256.6641387985847,127.62489172661878C256.77134563311705,128.28242697841745,256.77134563311705,128.9399622302161,256.77134563311705,129.48314352518003C256.7784927554192,142.72676115107936,246.15786901441203,153.56179856115125,233.13581217987957,153.56179856115125ZL233.13581217987957,153.56179856115125Z" style="fill: rgb(0, 0, 0); fill-opacity: 1; stroke-width: 1; stroke: rgb(0, 0, 0); stroke-opacity: 1;"/></g><g id="shape-3cb29530-f071-11ec-a7de-a50b7cfa0f8b"><path d="M287.5858599294722,140.56179856115125C274.56380309493983,140.56179856115125,263.94317935393263,129.72676115107936,263.94317935393263,116.48314352518003C263.94317935393263,115.93281510791383,263.94317935393263,115.28242697841745,264.050386188465,114.62489172661878C264.15759302299745,112.65228597122325,263.6001174834291,110.85835827338144,265.1438959006952,108.935782374101C277.0295602891844,99.28716726618711,285.0271901452996,77.52417985611521,285.82766784314134,72.71416654676261L287.5858599294722,70.5200000000001L289.2296980589686,72.59981258992809C289.88723331076716,73.47890863309374,305.5394311524938,93.28358453237422,310.0206768359471,108.935782374101C310.5710052532133,110.68682733812977,311.00697971364497,112.65943309352531,311.1141865481773,114.62489172661878C311.22139338270966,115.28242697841745,311.22139338270966,115.93996223021611,311.22139338270966,116.48314352518003C311.22854050501184,129.72676115107936,300.60791676400464,140.56179856115125,287.5858599294722,140.56179856115125ZL287.5858599294722,140.56179856115125Z" style="fill: rgb(0, 0, 0); fill-opacity: 1; stroke-width: 1; stroke: rgb(0, 0, 0); stroke-opacity: 1;"/></g></g><g id="shape-8121d590-ec80-11ec-a7de-a50b7cfa0f8b"><g id="shape-48dc94a0-ec7f-11ec-a7de-a50b7cfa0f8b"><g id="shape-48de1b40-ec7f-11ec-a7de-a50b7cfa0f8b"><path class="cls-1" d="M556.4070116444373,259.63C510.1670116444373,259.63,485.85701164443736,227.2700000000001,485.85701164443736,191.94000000000017C485.85701164443736,156.12,511.6470116444373,125.24000000000012,557.2970116444374,125.24000000000012C602.6570116444373,125.24000000000012,627.2970116444374,158.34000000000003,627.2970116444374,193.18000000000018C627.2570116444374,228.2600000000001,601.7670116444374,259.63,556.4070116444373,259.63ZZM555.2270116444374,143.5200000000001C530.0270116444374,143.5200000000001,524.1070116444373,172.9200000000002,524.1070116444373,188.73000000000013C524.1070116444373,204.79000000000008,532.1070116444373,239.13,557.8970116444373,239.13C582.5070116444374,239.13,589.0270116444374,208.99000000000012,589.0270116444374,193.68000000000018C589.0270116444374,176.62,582.1970116444372,143.5200000000001,555.2270116444374,143.5200000000001ZZ" style="fill: rgb(234, 7, 7); fill-opacity: 1;"/></g><g id="shape-48df2cb0-ec7f-11ec-a7de-a50b7cfa0f8b"><path class="cls-1" d="M702.0970116444374,259.39C691.0970116444374,259.39,684.3070116444375,257.65999999999997,675.0970116444373,252.9699999999999L675.0970116444373,309.05000000000007C675.0970116444373,312.7599999999999,674.2070116444374,314.48000000000013,669.1770116444375,314.48000000000013L645.7770116444374,314.48000000000013C641.6170116444373,314.48000000000013,638.6570116444373,313.98000000000013,638.6570116444373,309.7900000000001L638.6570116444373,152.6600000000002C638.6570116444373,146.49000000000012,638.6570116444373,142.5300000000001,643.9970116444374,137.83000000000004C654.0770116444373,128.69000000000017,684.9070116444374,125.24000000000012,699.1370116444374,125.24000000000012C745.6770116444374,125.24000000000012,767.6170116444374,150.44000000000017,767.6170116444374,186.7500000000001C767.6370116444374,219.11,747.4570116444374,259.39,702.0970116444374,259.39ZZM693.2070116444374,143.32000000000005C680.7570116444374,143.32000000000005,675.1170116444373,148.5100000000001,675.1170116444373,158.39L675.1170116444373,233.98000000000013C681.6470116444373,236.98000000000013,688.1170116444374,239.65999999999997,695.8770116444374,239.65999999999997C723.4470116444375,239.65999999999997,729.9670116444374,209.0300000000001,729.9670116444374,191.49000000000012C729.9670116444374,172.18000000000018,722.5470116444374,143.32000000000005,693.2070116444374,143.32000000000005ZZ"/></g><g id="shape-48dfc8f0-ec7f-11ec-a7de-a50b7cfa0f8b"><path class="cls-1" d="M849.7270116444374,259.63C803.4870116444374,259.63,779.1770116444375,227.2700000000001,779.1770116444375,191.94000000000017C779.1770116444375,156.12,804.9670116444374,125.24000000000012,850.6170116444374,125.24000000000012C895.9770116444374,125.24000000000012,920.6170116444374,158.34000000000003,920.6170116444374,193.18000000000018C920.5770116444374,228.2600000000001,895.0770116444374,259.63,849.7270116444374,259.63ZZM848.5470116444374,143.5200000000001C823.3470116444373,143.5200000000001,817.4170116444374,172.9200000000002,817.4170116444374,188.73000000000013C817.4170116444374,204.79000000000008,825.4170116444374,239.13,851.2070116444373,239.13C875.8070116444374,239.13,882.3370116444373,208.99000000000012,882.3370116444373,193.68000000000018C882.3370116444374,176.62,875.5170116444374,143.5200000000001,848.5470116444374,143.5200000000001ZZ"/></g><g id="shape-48e08c40-ec7f-11ec-a7de-a50b7cfa0f8b"><path class="cls-1" d="M1057.1770116444372,244.81000000000006C1047.6970116444372,255.92999999999995,1016.8670116444374,259.63,1001.4470116444373,259.63C954.3170116444373,259.63,931.7870116444374,232.94999999999993,931.7870116444374,195.89C931.7870116444374,163.0300000000001,952.5370116444374,124.99000000000012,997.5970116444374,124.99000000000012C1008.5970116444374,124.99000000000012,1015.3770116444374,127.46000000000015,1024.5970116444373,131.65999999999997L1024.5970116444373,72.36000000000001C1024.5970116444373,68.90999999999997,1026.6770116444375,67.42000000000019,1030.8270116444373,67.42000000000019L1054.2470116444374,67.42000000000019C1058.3970116444375,67.42000000000019,1061.3670116444373,67.92000000000019,1061.3670116444373,71.87L1061.3670116444373,232.21000000000015C1061.3370116444376,236.65999999999997,1060.4470116444372,241.11,1057.1770116444372,244.81000000000006ZZM1024.5670116444373,147.97000000000014C1018.9122136657459,144.01721027669112,1012.1959910591567,141.86327899964283,1005.2970116444374,141.79000000000008C976.5470116444374,141.79000000000008,968.8370116444373,172.4200000000002,968.8370116444373,190.95000000000016C968.8370116444373,210.22000000000014,976.5470116444374,239.62,1006.1970116444373,239.62C1018.9370116444373,239.62,1024.5770116444373,233.69000000000017,1024.5770116444373,223.81000000000006Z"/></g><g id="shape-48e0da60-ec7f-11ec-a7de-a50b7cfa0f8b"><path class="cls-1" d="M1143.2370116444372,259.32000000000005C1096.9970116444374,259.32000000000005,1072.6370116444373,226.94999999999993,1072.6370116444373,191.62C1072.6370116444373,155.80000000000007,1098.4270116444372,124.92000000000019,1144.0770116444373,124.92000000000019C1189.4370116444377,124.92000000000019,1214.0770116444376,158.0300000000001,1214.0770116444376,192.86C1214.0870116444378,227.94000000000017,1188.6370116444375,259.32000000000005,1143.2370116444372,259.32000000000005ZZM1142.0470116444371,143.22000000000014C1116.8470116444373,143.22000000000014,1110.9270116444372,172.62,1110.9270116444372,188.43000000000018C1110.9270116444372,204.49000000000012,1118.9270116444372,238.83000000000004,1144.7270116444374,238.83000000000004C1169.3270116444376,238.83000000000004,1175.8470116444375,208.69000000000017,1175.8470116444375,193.37C1175.8470116444375,176.32000000000005,1169.0270116444378,143.21000000000015,1142.0470116444371,143.22000000000014ZZ"/></g></g><g id="shape-62c03c51-ec7f-11ec-a7de-a50b7cfa0f8b"><g><path d="M6015 14190 c-451 -33 -650 -240 -696 -723 -14 -157 -6 -2947 10
-3377 25 -661 53 -1190 86 -1650 7 -107 13 -196 11 -197 -1 -1 -13 -4 -26 -5
-23 -3 -34 19 -196 397 -436 1017 -285 689 -2376 5141 l-170 362 -91 11 c-476
60 -1225 49 -1582 -23 l-60 -12 -3 -3755 -2 -3756 122 -16 c353 -48 773 -48
1126 0 l124 16 -5 1851 c-3 1061 -9 1964 -15 2116 -28 683 -34 818 -53 1150
-11 195 -24 414 -29 485 -6 72 -10 149 -10 173 0 41 2 43 26 40 23 -3 33 -22
113 -223 164 -410 325 -789 480 -1127 66 -145 726 -1534 1950 -4104 l172 -360
97 -12 c210 -26 411 -36 732 -36 343 -1 501 8 765 45 77 10 143 19 147 19 5 0
8 1691 8 3758 l0 3758 -33 32 -33 32 -244 -2 c-135 0 -290 -4 -345 -8z" transform="translate(300, 2.0666187050359213) scale(0.25, 0.25) translate(0.000000,1676.000000) scale(0.100000,-0.100000)" fill="#ea0707" stroke="none"/></g></g></g><g id="shape-f2a85dd1-f06b-11ec-a7de-a50b7cfa0f8b"><rect rx="21" ry="21" x="466" y="176.46423546812525" transform="matrix(0.7071067724915884,-0.7071067949321425,0.7071067658003232,0.7071067882408776,28.402318024296278,450.49771982952)" width="184" height="29" style="fill: rgb(234, 7, 7); fill-opacity: 1;"/></g></g></g></svg>